<svg
width="150px"
height="150px"
viewBox="0 0 90 90"
version="1.1"
xmlns="http://www.w3.org/2000/svg"
xmlns:xlink="http://www.w3.org/1999/xlink"
data-llp-composed="true"
>
<defs>
<path
    d="M67.0426816,84.2407824 C80.7450076,76.5272468 90,61.844433 90,45 C90,20.1471863 69.8528137,0 45,0 C20.1471863,0 0,20.1471863 0,45 C0,69.8528137 20.1471863,90 45,90 C45.9571414,90 46.9073033,89.9701176 47.8496038,89.9112349 C49.80085,82.8953858 50.3442798,79 50.3442798,76.2352941 C50.3442798,73.4705882 49,70 46.3946453,67.5367647 C43.7892906,65.0735294 40.2601285,64.0796647 35.8902983,62.5183824 C33.6493598,61.7377412 31.4644775,60.789834 29.3355858,59.6746324 C27.2066942,58.5594307 25.2459024,57.053931 23.4531515,55.1580882 C21.6604007,53.2622454 20.2318238,50.9482367 19.1673779,48.2159926 C18.1029321,45.4837486 17.5707172,42.1660734 17.5707172,38.2628676 C17.5707172,34.1366215 18.3270226,30.4565113 19.8396562,27.2224265 C21.3522897,23.9883417 23.3410928,21.228259 25.8061252,18.9420956 C28.2711577,16.6559322 31.1283115,14.9273956 34.3776724,13.7564338 C37.6270333,12.5854721 40.9883907,12 44.4618455,12 C49.6160042,12 54.2658819,12.9200276 58.4116182,14.7601103 C62.5573546,16.600193 66.0867799,18.969961 69,21.8694853 L58.9158269,34.0808824 C57.3471699,31.9619992 55.3863781,30.2334626 53.0333926,28.8952206 C50.6804071,27.5569786 47.9913212,26.8878676 44.9660541,26.8878676 C42.1648809,26.8878676 39.8119307,27.8636545 37.907133,29.8152574 C36.0023352,31.7668602 35.0499506,34.3596652 35.0499506,37.59375 C35.0499506,40.939355 36.0583578,43.3648822 38.0752025,44.8704044 C40.0920472,46.3759266 43.2853368,47.9093059 47.6551669,49.4705882 C50.1201994,50.3627496 52.5571835,51.4500549 54.9661924,52.7325368 C57.3752014,54.0150187 59.5600837,55.6599164 61.520905,57.6672794 C63.4817262,59.6746424 65.0503597,62.1001696 66.2268524,64.9439338 C67.4033451,67.787698 67.7503078,71.0222716 67.8939726,74.7255054 C67.9196741,75.3880096 67.6359104,78.5597686 67.0426816,84.2407824 Z"
    id="path-1"
    data-llp-id="Mask-0"
    data-llp-duration="1500"
    data-llp-delay="0"
    fill-opacity="1"
    style="stroke-linecap: round; stroke-linejoin: round"
    data-llp-stroke-cap="round"
    data-llp-stroke-join="round"
/>
</defs>
<g id="Page-1" stroke="none" stroke-width="1" fill="none" fill-rule="evenodd">
<g id="Desktop-HD" transform="translate(-893.000000, -133.000000)">
    <g id="Logotype" transform="translate(893.000000, 133.000000)">
    <g id="splitbit">
        <mask id="mask-2" fill="white">
        <use xlink:href="#path-1" />
        </mask>
        <path
        d="M68.2415646,82.3684586 C81.0152926,74.4132119 89,60.4061316 89,45 C89,20.699471 69.300529,1 45,1 C20.699471,1 1,20.699471 1,45 C1,69.300529 20.699471,89 45,89 C45.6943218,89 46.3866796,88.9839258 47.0767171,88.9518764 C48.6941664,83.027058 49.3442798,79.1589593 49.3442798,76.2352941 C49.3442798,73.5566055 47.9735605,70.405734 45.7076353,68.2634126 C44.1779005,66.8171233 42.3412179,65.8775358 39.0059341,64.675965 C38.4220922,64.4656298 36.1034992,63.6564666 35.5613326,63.4627242 C33.2738477,62.6658684 31.043833,61.6983806 28.8715566,60.5604523 C26.6426309,59.3928486 24.5937275,57.8196967 22.7265656,55.8451639 C20.8423409,53.852587 19.3455697,51.4281171 18.2355931,48.5790036 C17.1223705,45.7215582 16.5707172,42.2827099 16.5707172,38.2628676 C16.5707172,33.9952619 17.3566949,30.1707692 18.9338376,26.7987606 C20.5002691,23.4496531 22.5650654,20.5841063 25.1261207,18.2088877 C27.6904018,15.8306773 30.6636985,14.0318759 34.0386474,12.8156564 C37.3969023,11.6054529 40.8729753,11 44.4618455,11 C49.7514612,11 54.5393675,11.947338 58.8173025,13.846097 C63.0719798,15.7345331 66.7033835,18.1727726 69.7054388,21.1607144 L70.3513312,21.8035703 L58.8728215,35.7034348 L58.112109,34.6758929 C56.6269117,32.669744 54.7717266,31.034305 52.539015,29.7644679 C50.341336,28.5145552 47.8227452,27.8878676 44.9660541,27.8878676 C42.4322975,27.8878676 40.3379402,28.756414 38.6227692,30.5137305 C36.9096457,32.2689493 36.0499506,34.6094132 36.0499506,37.59375 C36.0499506,40.6457112 36.9331071,42.7699722 38.6733926,44.0690502 C40.59568,45.5039878 43.7073566,46.9981776 47.9954899,48.5302796 C50.5054901,49.438716 52.9857389,50.5453246 55.4361179,51.8498307 C57.9365588,53.1809881 60.2040731,54.8880957 62.236256,56.9685142 C64.2883893,59.0693565 65.9267541,61.602707 67.1508965,64.5616479 C68.2600108,67.242548 68.7196696,70.2131242 68.8932209,74.6867401 C68.9183777,75.3352041 68.7041836,77.8414328 68.2415646,82.3684586 Z"
        data-llp-id="Mask-1"
        data-llp-duration="1500"
        data-llp-delay="0"
        fill-opacity="1"
        style="stroke-linecap: round; stroke-linejoin: round"
        data-llp-stroke-cap="round"
        data-llp-stroke-join="round"
        />
    </g>
    </g>
</g>
</g>
</svg>
