
<?xml version="1.0" standalone="no"?>
<!DOCTYPE svg PUBLIC "-//W3C//DTD SVG 20010904//EN"
 "http://www.w3.org/TR/2001/REC-SVG-20010904/DTD/svg10.dtd">
<svg version="1.0" xmlns="http://www.w3.org/2000/svg"
 width="256.000000pt" height="256.000000pt" viewBox="0 0 256.000000 256.000000"
 preserveAspectRatio="xMidYMid meet">
<metadata></metadata>
<g transform="translate(0.000000,256.000000) scale(0.100000,-0.100000)"
fill="#000000" stroke="none">
<path d="M1140 2554 c-293 -38 -549 -161 -758 -367 -182 -180 -303 -402 -358
-657 -26 -119 -26 -381 0 -500 54 -252 169 -465 349 -648 233 -236 520 -363
858 -379 l136 -6 15 39 c29 72 50 193 46 257 -5 74 -41 158 -92 214 -45 50
-118 89 -271 146 -231 86 -315 134 -404 234 -109 121 -155 259 -156 463 0 155
11 209 65 325 92 198 264 344 475 401 99 27 319 30 438 6 147 -31 324 -120
438 -220 l42 -38 -143 -173 -143 -172 -53 53 c-107 106 -226 154 -359 146 -81
-6 -123 -24 -183 -81 -54 -53 -82 -125 -82 -215 0 -167 55 -224 313 -326 250
-99 357 -162 452 -268 59 -66 114 -165 137 -247 25 -90 33 -232 18 -304 -6
-32 -9 -61 -7 -64 3 -2 41 19 84 48 99 66 275 241 340 339 347 519 281 1193
-159 1627 -180 176 -383 288 -628 344 -83 19 -331 33 -410 23z"/>
</g>
</svg>
